<svg xmlns="http://www.w3.org/2000/svg" viewBox="0 0 96 96" role="img" aria-labelledby="title description">
  <title id="title">ENGREF</title>
  <desc id="description">Mirrored E joined to R with an emerging plus and static two-color baseline.</desc>
  <defs>
    <linearGradient id="baseline-static" x1="0" y1="0" x2="1" y2="0">
      <stop offset="0%" stop-color="#8bd21b"/>
      <stop offset="50%" stop-color="#8bd21b"/>
      <stop offset="50%" stop-color="#f2f5ec"/>
      <stop offset="100%" stop-color="#f2f5ec"/>
    </linearGradient>
  </defs>
  <path fill="#f2f5ec" d="M44 20H14v8h20v10H16v8h18v12H14v8h30V20Z"/>
  <path fill="#8bd21b" d="M38 20h19c10 0 16 6 16 15 0 6-3 11-9 13l12 18H64l-9-16h-7v16H38V20Zm10 8v14h9c4 0 7-3 7-7 0-5-3-7-8-7h-8Z"/>
  <rect x="81" y="11" width="5" height="23" fill="#8bd21b"/>
  <rect x="55" y="20" width="40" height="5" fill="#8bd21b"/>
  <rect x="14" y="76" width="68" height="5" fill="url(#baseline-static)"/>
</svg>
