<svg xmlns="http://www.w3.org/2000/svg" viewBox="0 0 76 64" role="img" aria-labelledby="title description">
  <title id="title">ENGREF</title>
  <desc id="description">Large ER monogram with an animated two-color baseline.</desc>
  <defs>
    <style>@media (prefers-reduced-motion: reduce) { animate { display: none; } }</style>
    <linearGradient id="baseline-motion" x1="0" y1="0" x2="1" y2="0">
      <stop offset="0%" stop-color="#8bd21b"/>
      <stop offset="50%" stop-color="#8bd21b">
        <animate attributeName="offset" values="0%;0%;100%;100%;50%;72%;28%;50%;0%;0%" keyTimes="0;0.12;0.24;0.36;0.5;0.62;0.74;0.84;0.92;1" dur="2.8s" repeatCount="indefinite"/>
      </stop>
      <stop offset="50%" stop-color="#f2f5ec">
        <animate attributeName="offset" values="0%;0%;100%;100%;50%;72%;28%;50%;0%;0%" keyTimes="0;0.12;0.24;0.36;0.5;0.62;0.74;0.84;0.92;1" dur="2.8s" repeatCount="indefinite"/>
      </stop>
      <stop offset="100%" stop-color="#f2f5ec"/>
    </linearGradient>
  </defs>
  <path fill="#f2f5ec" d="M28 8H1v8h18v8H3v8h16v11H1v8h27V8Z"/>
  <path fill="#8bd21b" d="M24 8h17c9 0 14 5 14 13 0 6-3 10-8 12l10 18H47l-8-15h-6v15h-9V8Zm9 8v12h8c3 0 5-2 5-6s-2-6-6-6h-7Z"/>
  <rect x="62" y="0" width="5" height="21" fill="#8bd21b"/>
  <rect x="39" y="8" width="37" height="5" fill="#8bd21b"/>
  <rect x="1" y="57" width="74" height="6" fill="url(#baseline-motion)"/>
</svg>
